<svg xmlns="http://www.w3.org/2000/svg" viewBox="0 0 171.699 27.5"><defs><style>.cls-1{fill:#424a52}</style></defs><g id="logo_dr_irena_eris" transform="translate(-109.65 -96)"><path id="Path_1" data-name="Path 1" class="cls-1" d="M20.32 13.918c0 8-4.194 11.846-12.746 11.846-1.244 0-2.6-.077-4.083-.189-.112-4.117-.154-8.32-.154-12.592 0-3.5.034-7.034.112-10.645 2.187-.154 4.169-.2 5.876-.2 7.694 0 11 3.38 11 11.777m3.766-.746c0-4.846-1.784-8.586-4.966-10.722C16.829.9 14.11.58 10.456.58c-3.148 0-5.67.2-7.54.2C1.827.786.858.743 0 .709.154 4.672.154 9.1.154 14c0 4.658 0 9.084-.154 13.244 1.6-.043 2.608-.077 3.105-.077 1.947 0 3.843.163 5.67.163 10.07 0 15.311-5.018 15.311-14.153" transform="translate(109.65 95.918)"/><path id="Path_2" data-name="Path 2" class="cls-1" d="M40.234 13.207l-.309.189a3.928 3.928 0 0 0-1.861-.506c-2.951 0-4.083 2.573-4.083 7.849 0 3.457.077 6.1.2 7.849a7.821 7.821 0 0 0-1.673-.137 9.47 9.47 0 0 0-1.475.094c.12-2.753.2-6.991.2-12.661 0-2.1-.034-3.963-.2-5.636a8.8 8.8 0 0 0 1.667.152 8.068 8.068 0 0 0 1.63-.154 35.124 35.124 0 0 0-.232 4.272c1.4-2.959 2.951-4.469 4.855-4.469a8.656 8.656 0 0 1 1.475.2 15.954 15.954 0 0 0-.2 2.959" transform="translate(105.237 94.571)"/><path id="Path_3" data-name="Path 3" class="cls-1" d="M55.947 27.071a10.538 10.538 0 0 0-1.827.18c.189-3.036.232-6.33.232-10.027v-3.217c0-5.352 0-9.753-.232-13.287a9.281 9.281 0 0 0 1.75.154A9.444 9.444 0 0 0 57.7.72c-.163 2.059-.189 4.58-.189 7.617v5.67c0 2.333-.034 4.46-.034 6.408 0 2.608.034 4.9.232 6.836a9.484 9.484 0 0 0-1.758-.18" transform="translate(101.953 95.898)"/><path id="Path_4" data-name="Path 4" class="cls-1" d="M72.472 13.207l-.309.189a3.934 3.934 0 0 0-1.87-.506c-2.951 0-4.074 2.573-4.074 7.849 0 3.457.077 6.1.2 7.849a7.821 7.821 0 0 0-1.673-.137 9.648 9.648 0 0 0-1.484.094c.12-2.753.2-6.991.2-12.661 0-2.1-.043-3.963-.2-5.636a8.8 8.8 0 0 0 1.673.154 8.068 8.068 0 0 0 1.63-.154 35.125 35.125 0 0 0-.232 4.272c1.4-2.959 2.951-4.469 4.855-4.469a8.764 8.764 0 0 1 1.475.2 17.673 17.673 0 0 0-.189 2.959" transform="translate(100.653 94.571)"/><path id="Path_5" data-name="Path 5" class="cls-1" d="M87.547 17.8H77.322c.154-4.2 2.453-6.759 5.361-6.759 2.994 0 4.855 2.213 4.855 6.09v.669zm3.105.506c0-5.447-2.874-8.475-7.814-8.475-5.4 0-8.938 3.808-8.938 9.6 0 5.593 3.688 9.47 9.17 9.47a10.914 10.914 0 0 0 6.6-2.213v-.463c0-.463.034-.969.077-1.475a8.122 8.122 0 0 1-5.979 2.6c-4.229 0-6.528-2.8-6.528-8.08v-.112h13.369c0-.309.043-.583.043-.849" transform="translate(99.139 94.602)"/><path id="Path_6" data-name="Path 6" class="cls-1" d="M109.939 28.363a7.776 7.776 0 0 0-1.6.18c.154-2.719.232-6.408.232-10.988 0-3.843-1.475-5.747-4.426-5.747a4.348 4.348 0 0 0-3.611 1.664c-1.218 1.518-1.321 3.465-1.321 6.064v1.75c0 2.865 0 5.284.1 7.257a7.318 7.318 0 0 0-1.613-.18 7.5 7.5 0 0 0-1.587.18c.154-2.17.154-4.426.154-6.759v-2.762c0-3.148 0-6.056-.154-8.818a7.712 7.712 0 0 0 1.587.154 6.553 6.553 0 0 0 1.518-.154c-.043.7-.086 1.312-.086 1.973 0 .463.043.935.043 1.4a6.728 6.728 0 0 1 6.1-3.766c4.117 0 6.219 2.333 6.219 6.956 0 1.9-.077 3.808-.077 5.636 0 1.939.034 3.963.12 6.133a9.132 9.132 0 0 0-1.6-.172" transform="translate(95.979 94.605)"/><path id="Path_7" data-name="Path 7" class="cls-1" d="M127.755 23.953a1.956 1.956 0 0 1-.66 1.655 5.982 5.982 0 0 1-3.877 1.716c-2.179 0-3.465-1.33-3.465-3.688 0-3.071 2.41-3.774 8-4.709zm5.284 4l-.163-.781a4.487 4.487 0 0 1-.661.034c-1.475 0-1.716-.7-1.716-2.565V23.55l.163-6.639v-.472c0-4.426-1.707-6.519-6.133-6.519a9.632 9.632 0 0 0-6.253 2.17l-.077 2.059h.309a5.734 5.734 0 0 1 5.018-2.762c3.139 0 4.306 1.673 4.306 5.1v.813c-.969.883-3.337 1.046-6.759 1.784-3.028.66-4.5 2.3-4.5 5.052 0 3.036 1.9 4.778 5.361 4.778a7.76 7.76 0 0 0 5.781-2.6c.24 1.553.815 2.256 2.136 2.256a11.081 11.081 0 0 0 3.191-.618" transform="translate(93.07 94.589)"/><path id="Path_8" data-name="Path 8" class="cls-1" d="M155.408 27.174c-2.3 0-4.7 0-7.188.077.24-3.577.317-8.08.317-13.553 0-5.044-.077-9.358-.274-12.978 1.484.077 3.028.12 4.743.12S157.715.8 161.9.72c0 .343-.043.738-.043 1.124 0 .343.043.738.043 1.124a105.26 105.26 0 0 0-9.212-.395h-.888c-.077 4.623-.077 7.351-.077 8.192v1.561h.695c1.99 0 4.778-.077 8.44-.317a11.466 11.466 0 0 0-.086 1.209 7.869 7.869 0 0 0 .086 1.089A47.761 47.761 0 0 0 153.5 14h-1.827v1.87c0 2.445.043 5.593.077 9.47h.969c1.947 0 5.087-.1 9.324-.42 0 .395-.034.781-.034 1.158s.034.772.034 1.167c-2.093-.069-4.306-.069-6.639-.069" transform="translate(88.569 95.898)"/><path id="Path_9" data-name="Path 9" class="cls-1" d="M176.681 13.207l-.317.189a3.934 3.934 0 0 0-1.87-.506c-2.951 0-4.074 2.573-4.074 7.849 0 3.457.069 6.1.189 7.849a7.879 7.879 0 0 0-1.664-.137 9.648 9.648 0 0 0-1.484.094c.12-2.753.2-6.991.2-12.661 0-2.1-.034-3.963-.2-5.636a8.8 8.8 0 0 0 1.673.154 8.068 8.068 0 0 0 1.63-.154 35.126 35.126 0 0 0-.232 4.272c1.4-2.959 2.951-4.469 4.855-4.469a8.764 8.764 0 0 1 1.475.2 17.76 17.76 0 0 0-.18 2.959" transform="translate(85.832 94.571)"/><path id="Path_10" data-name="Path 10" class="cls-1" d="M181.736 4.16a2.16 2.16 0 0 1-2.2-2.1 2.2 2.2 0 0 1 4.383 0 2.147 2.147 0 0 1-2.187 2.1m0 22.808a7.709 7.709 0 0 0-1.6.18c.12-3.182.2-6.408.2-9.633 0-2.951-.077-5.867-.2-8.7a7.737 7.737 0 0 0 1.6.154 7.3 7.3 0 0 0 1.578-.154c-.1 2.874-.189 5.747-.189 8.7 0 3.225.086 6.45.189 9.633a7.293 7.293 0 0 0-1.578-.18" transform="translate(84.114 96)"/><path id="Path_11" data-name="Path 11" class="cls-1" d="M191.321 28.9a8.606 8.606 0 0 1-5-1.4 23.848 23.848 0 0 0 .926-2.994c1.287 1.981 2.874 2.951 4.735 2.951 2.29 0 3.766-1.321 3.766-3.525 0-1.827-1-2.608-3.062-3.191l-1.793-.506c-2.951-.815-4.186-2.256-4.186-5.009 0-3.071 2.29-5.361 5.936-5.361a9.209 9.209 0 0 1 4.855 1.278 10.111 10.111 0 0 0-.815 2.445c-1.475-1.716-2.951-2.565-4.5-2.565a3.123 3.123 0 0 0-3.3 3.26c0 1.784.935 2.676 2.959 3.26l2.642.781c2.556.729 3.723 2.016 3.723 4.469 0 3.465-2.719 6.107-6.879 6.107" transform="translate(83.15 94.596)"/></g></svg>